<svg width="83" height="84" viewBox="0 0 83 84" fill="none" xmlns="http://www.w3.org/2000/svg">
<rect x="0.497178" y="1.4774" width="81.5371" height="81.5371" rx="9.44637" fill="white" stroke="#E2E4E8" stroke-width="0.994355"/>
<path opacity="0.5" fill-rule="evenodd" clip-rule="evenodd" d="M57.7432 46.6658C55.8639 44.6223 52.6149 44.9055 51.1013 47.2238C49.5846 44.9016 46.3318 44.6246 44.4548 46.6705C42.8681 48.4004 43.0494 51.1194 44.6953 52.7925L50.5449 58.7379C50.85 59.0476 51.3496 59.0476 51.6546 58.7379L57.5059 52.7925C59.1548 51.1178 59.3338 48.3949 57.7432 46.6658Z" fill="#4E1D5B"/>
<path fill-rule="evenodd" clip-rule="evenodd" d="M37.8719 46.072H30.09C29.6596 46.072 29.3118 45.7234 29.3118 45.2938C29.3118 44.8643 29.6596 44.5156 30.09 44.5156H37.8719C38.3022 44.5156 38.6501 44.8643 38.6501 45.2938C38.6501 45.7234 38.3022 46.072 37.8719 46.072Z" fill="#4E1D5B"/>
<path fill-rule="evenodd" clip-rule="evenodd" d="M26.9773 25.8391H56.5485C58.2652 25.8391 59.6613 27.2352 59.6613 28.9519V42.9593H58.1049V39.0684H25.4209V49.1848C25.4209 50.0432 26.1189 50.7412 26.9773 50.7412H39.4283V52.2976H26.9773C25.2606 52.2976 23.8645 50.9015 23.8645 49.1848V28.9519C23.8645 27.2352 25.2606 25.8391 26.9773 25.8391ZM25.4209 32.8428H58.105V28.9518C58.105 28.0935 57.4069 27.3955 56.5486 27.3955H26.9773C26.119 27.3955 25.4209 28.0935 25.4209 28.9518V32.8428Z" fill="#4E1D5B"/>
</svg>
