<svg width="83" height="83" viewBox="0 0 83 83" fill="none" xmlns="http://www.w3.org/2000/svg">
<rect x="0.497178" y="0.731431" width="81.5371" height="81.5371" rx="9.44637" fill="white" stroke="#E2E4E8" stroke-width="0.994355"/>
<path opacity="0.2" fill-rule="evenodd" clip-rule="evenodd" d="M30.8682 41.9972C30.8682 48.0049 35.7552 52.8919 41.7628 52.8919C47.7705 52.8919 52.6575 48.0049 52.6575 41.9972C52.6575 35.9896 47.7705 31.1025 41.7628 31.1025C35.7552 31.1025 30.8682 35.9896 30.8682 41.9972ZM32.4246 41.9972C32.4246 36.8479 36.6136 32.6589 41.7629 32.6589C46.9122 32.6589 51.1012 36.8479 51.1012 41.9972C51.1012 47.1465 46.9122 51.3355 41.7629 51.3355C36.6136 51.3355 32.4246 47.1465 32.4246 41.9972Z" fill="#4E1D5B"/>
<circle opacity="0.5" cx="41.7632" cy="41.9972" r="3.11276" fill="#4E1D5B"/>
<path fill-rule="evenodd" clip-rule="evenodd" d="M58.0053 34.4728C57.5921 34.7911 57.1415 35.0635 56.6559 35.2712C57.5983 37.3576 58.1049 39.6416 58.1049 41.9972C58.1049 51.0086 50.7744 58.3392 41.7629 58.3392C32.7514 58.3392 25.4209 51.0086 25.4209 41.9972C25.4209 32.9857 32.7514 25.6551 41.7629 25.6551C44.8928 25.6551 47.9487 26.5726 50.5635 28.2434C50.4172 28.6527 50.323 29.087 50.323 29.5461C50.323 31.6916 52.0685 33.437 54.214 33.437C56.3594 33.437 58.1049 31.6916 58.1049 29.5461C58.1049 27.4006 56.3594 25.6551 54.214 25.6551C53.0871 25.6551 52.0786 26.1446 51.3673 26.9127C48.5114 25.0956 45.1768 24.0988 41.7629 24.0988C31.8939 24.0988 23.8645 32.1281 23.8645 41.9972C23.8645 51.8662 31.8939 59.8955 41.7629 59.8955C51.6319 59.8955 59.6613 51.8662 59.6613 41.9972C59.6613 39.3583 59.0831 36.7988 58.0053 34.4728Z" fill="#4E1D5B"/>
</svg>
