<svg width="83" height="83" viewBox="0 0 83 83" fill="none" xmlns="http://www.w3.org/2000/svg">
<rect x="0.497178" y="0.731431" width="81.5371" height="81.5371" rx="9.44637" fill="white" stroke="#E2E4E8" stroke-width="0.994355"/>
<path opacity="0.5" fill-rule="evenodd" clip-rule="evenodd" d="M31.8582 28.2014L32.9585 29.3017C35.2936 26.9666 38.4606 25.6547 41.763 25.6547C45.0653 25.6547 48.2324 26.9666 50.5674 29.3017L51.6678 28.2014C49.0409 25.5744 45.478 24.0986 41.763 24.0986C38.0479 24.0986 34.4851 25.5744 31.8582 28.2014Z" fill="#4E1D5B"/>
<path opacity="0.5" fill-rule="evenodd" clip-rule="evenodd" d="M41.7631 30.3242C39.6987 30.3215 37.7183 31.1418 36.2605 32.6035L37.3609 33.7039C38.5284 32.5363 40.1119 31.8804 41.7631 31.8804C43.4143 31.8804 44.9978 32.5363 46.1653 33.7039L47.2657 32.6035C45.8079 31.1418 43.8275 30.3215 41.7631 30.3242Z" fill="#4E1D5B"/>
<path fill-rule="evenodd" clip-rule="evenodd" d="M47.2103 52.1137V49.562L45.408 48.9604C45.2015 48.8912 45.0334 48.7386 44.9447 48.5396C44.856 48.3407 44.8547 48.1137 44.9411 47.9138L47.2103 42.6765V41.219C47.2002 38.1223 48.6136 35.1926 51.0437 33.2731C53.4738 31.3536 56.6512 30.6572 59.6614 31.3842V59.1174H53.4358V55.2264H50.3231C48.6039 55.2264 47.2103 53.8328 47.2103 52.1137Z" fill="#4E1D5B"/>
<path fill-rule="evenodd" clip-rule="evenodd" d="M36.3156 52.1136V49.5619L38.1178 48.9603C38.3244 48.8911 38.4924 48.7385 38.5812 48.5396C38.6699 48.3406 38.6712 48.1136 38.5848 47.9137L36.3156 42.6765V41.2189C36.3156 35.6317 31.7863 31.1024 26.1991 31.1024C25.4126 31.1054 24.6291 31.1999 23.8645 31.3841V59.1173H30.09V55.2263H33.2028C34.9219 55.2263 36.3156 53.8327 36.3156 52.1136Z" fill="#4E1D5B"/>
<circle opacity="0.5" cx="41.7632" cy="38.1063" r="1.55638" fill="#4E1D5B"/>
</svg>
